<?xml version="1.0" encoding="utf-8"?>
<!-- Generator: Adobe Illustrator 23.0.6, SVG Export Plug-In . SVG Version: 6.00 Build 0)  -->
<svg version="1.1" id="Camada_1" xmlns="http://www.w3.org/2000/svg" xmlns:xlink="http://www.w3.org/1999/xlink" x="0px" y="0px"
	 viewBox="0 0 200 200" style="enable-background:new 0 0 200 200;" xml:space="preserve">
<style type="text/css">
	.st0{fill:#FFFFFF;}
</style>
<text transform="matrix(1 0 0 1 39.3137 362.291)" style="font-family:'Muli-Bold'; font-size:18px;">nuvem musical</text>
<g>
	<path class="st0" d="M37.02,169.16v6.67H34.4v-6.54c0-0.86-0.16-1.49-0.48-1.88c-0.32-0.39-0.82-0.59-1.49-0.59
		c-0.8,0-1.44,0.26-1.93,0.79c-0.49,0.52-0.73,1.21-0.73,2.07v6.15h-2.6v-7.78c0-1.15-0.06-2.17-0.17-3.08h2.45l0.19,1.79
		c0.36-0.66,0.86-1.17,1.48-1.53s1.32-0.54,2.11-0.54C35.75,164.69,37.02,166.18,37.02,169.16z"/>
	<path class="st0" d="M49.45,164.97v10.86h-2.56v-1.68c-0.34,0.6-0.78,1.06-1.34,1.38c-0.56,0.32-1.2,0.47-1.93,0.47
		c-2.59,0-3.88-1.49-3.88-4.47v-6.56h2.6v6.58c0,0.79,0.16,1.37,0.47,1.74c0.32,0.37,0.8,0.56,1.46,0.56c0.77,0,1.38-0.26,1.84-0.77
		c0.46-0.52,0.69-1.2,0.69-2.07v-6.04H49.45z"/>
	<path class="st0" d="M59.72,164.99h2.6l-4.63,10.84H55.4l-4.57-10.84h2.75l3.04,7.79L59.72,164.99z"/>
	<path class="st0" d="M72.76,170.54h-7.29c0.06,1.16,0.34,2.02,0.85,2.57c0.51,0.55,1.27,0.83,2.27,0.83c1.16,0,2.24-0.39,3.23-1.16
		l0.75,1.85c-0.5,0.42-1.12,0.75-1.85,1S69.24,176,68.48,176c-1.73,0-3.1-0.5-4.09-1.51c-0.99-1-1.49-2.38-1.49-4.13
		c0-1.1,0.22-2.09,0.65-2.95c0.43-0.86,1.04-1.53,1.82-2.01c0.78-0.48,1.67-0.72,2.66-0.72c1.45,0,2.6,0.48,3.45,1.45
		c0.85,0.97,1.27,2.3,1.27,3.99V170.54z M66.4,167.26c-0.44,0.42-0.72,1.04-0.85,1.84h4.93c-0.08-0.82-0.33-1.43-0.72-1.85
		c-0.4-0.42-0.95-0.62-1.65-0.62S66.84,166.84,66.4,167.26z"/>
	<path class="st0" d="M90.16,165.8c0.59,0.74,0.88,1.86,0.88,3.37v6.67h-2.62v-6.58c0-0.86-0.14-1.48-0.41-1.86
		c-0.27-0.38-0.72-0.57-1.35-0.57c-0.73,0-1.3,0.26-1.71,0.79c-0.41,0.52-0.62,1.24-0.62,2.16v6.06h-2.62v-6.58
		c0-0.85-0.14-1.46-0.43-1.85c-0.29-0.39-0.74-0.58-1.35-0.58c-0.73,0-1.3,0.26-1.72,0.79c-0.42,0.52-0.63,1.24-0.63,2.16v6.06h-2.6
		v-7.78c0-1.15-0.06-2.17-0.17-3.08h2.45l0.19,1.72c0.31-0.65,0.75-1.14,1.33-1.48c0.58-0.34,1.25-0.52,2-0.52
		c1.62,0,2.68,0.69,3.17,2.07c0.33-0.65,0.81-1.15,1.44-1.52c0.62-0.37,1.32-0.55,2.09-0.55C88.68,164.69,89.57,165.06,90.16,165.8z
		"/>
	<path class="st0" d="M114.75,165.8c0.59,0.74,0.88,1.86,0.88,3.37v6.67h-2.62v-6.58c0-0.86-0.14-1.48-0.41-1.86
		c-0.27-0.38-0.72-0.57-1.35-0.57c-0.73,0-1.3,0.26-1.71,0.79c-0.41,0.52-0.62,1.24-0.62,2.16v6.06h-2.62v-6.58
		c0-0.85-0.14-1.46-0.43-1.85c-0.29-0.39-0.74-0.58-1.35-0.58c-0.73,0-1.3,0.26-1.72,0.79c-0.42,0.52-0.63,1.24-0.63,2.16v6.06h-2.6
		v-7.78c0-1.15-0.06-2.17-0.17-3.08h2.45l0.19,1.72c0.31-0.65,0.75-1.14,1.33-1.48c0.58-0.34,1.25-0.52,2-0.52
		c1.62,0,2.68,0.69,3.17,2.07c0.34-0.65,0.81-1.15,1.44-1.52c0.62-0.37,1.32-0.55,2.09-0.55
		C113.27,164.69,114.16,165.06,114.75,165.8z"/>
	<path class="st0" d="M128.06,164.97v10.86h-2.56v-1.68c-0.34,0.6-0.78,1.06-1.34,1.38c-0.56,0.32-1.2,0.47-1.93,0.47
		c-2.59,0-3.88-1.49-3.88-4.47v-6.56h2.6v6.58c0,0.79,0.16,1.37,0.47,1.74c0.32,0.37,0.8,0.56,1.46,0.56c0.77,0,1.38-0.26,1.84-0.77
		c0.46-0.52,0.69-1.2,0.69-2.07v-6.04H128.06z"/>
	<path class="st0" d="M130.22,174.62l0.73-1.89c1.13,0.86,2.42,1.29,3.88,1.29c0.63,0,1.11-0.11,1.46-0.32
		c0.34-0.21,0.51-0.52,0.51-0.9c0-0.33-0.12-0.59-0.36-0.79c-0.24-0.19-0.64-0.36-1.22-0.51l-1.76-0.41
		c-1.93-0.43-2.89-1.44-2.89-3.03c0-0.66,0.18-1.24,0.54-1.75c0.36-0.51,0.87-0.91,1.53-1.19c0.66-0.29,1.42-0.43,2.29-0.43
		c0.75,0,1.48,0.12,2.18,0.35c0.7,0.24,1.31,0.58,1.85,1.02l-0.78,1.83c-1.06-0.8-2.15-1.21-3.27-1.21c-0.6,0-1.07,0.12-1.4,0.34
		c-0.34,0.23-0.5,0.54-0.5,0.95c0,0.32,0.1,0.57,0.3,0.75c0.2,0.19,0.55,0.34,1.04,0.47l1.8,0.41c1.05,0.24,1.81,0.62,2.3,1.13
		s0.72,1.17,0.72,1.99c0,1-0.39,1.8-1.17,2.39c-0.78,0.59-1.85,0.88-3.21,0.88C132.87,176,131.35,175.54,130.22,174.62z"/>
	<path class="st0" d="M141.24,160.04h2.91v2.65h-2.91V160.04z M141.41,175.83v-10.86h2.6v10.86H141.41z"/>
	<path class="st0" d="M148.81,175.31c-0.81-0.46-1.43-1.11-1.87-1.95c-0.43-0.84-0.65-1.82-0.65-2.96c0-1.13,0.23-2.13,0.68-2.99
		c0.45-0.86,1.1-1.53,1.93-2.01c0.83-0.48,1.79-0.72,2.88-0.72c0.76,0,1.49,0.12,2.19,0.37c0.71,0.24,1.27,0.58,1.69,1.01
		l-0.73,1.89c-0.45-0.37-0.92-0.66-1.43-0.85c-0.5-0.19-1-0.29-1.49-0.29c-0.95,0-1.69,0.3-2.22,0.91c-0.53,0.61-0.8,1.49-0.8,2.63
		c0,1.15,0.26,2.02,0.79,2.62c0.52,0.6,1.27,0.9,2.23,0.9c0.49,0,0.98-0.1,1.49-0.3c0.5-0.2,0.98-0.49,1.43-0.86l0.73,1.89
		c-0.45,0.43-1.03,0.77-1.74,1.01c-0.71,0.24-1.46,0.37-2.24,0.37C150.58,176,149.62,175.77,148.81,175.31z"/>
	<path class="st0" d="M167.55,164.97v10.86h-2.58v-1.74c-0.32,0.6-0.78,1.07-1.38,1.41c-0.6,0.34-1.29,0.51-2.06,0.51
		c-0.92,0-1.74-0.23-2.45-0.69c-0.71-0.46-1.27-1.11-1.66-1.96c-0.39-0.85-0.59-1.83-0.59-2.95c0-1.12,0.2-2.11,0.6-2.98
		c0.4-0.87,0.95-1.54,1.67-2.02s1.52-0.72,2.43-0.72c0.77,0,1.45,0.17,2.06,0.51c0.6,0.34,1.06,0.81,1.38,1.41v-1.63H167.55z
		 M164.26,172.97c0.48-0.62,0.71-1.48,0.71-2.6c0-1.15-0.24-2.03-0.71-2.65c-0.47-0.62-1.15-0.92-2.03-0.92
		c-0.87,0-1.54,0.32-2.02,0.96c-0.48,0.64-0.72,1.52-0.72,2.66c0,1.12,0.24,1.98,0.72,2.58c0.48,0.6,1.16,0.9,2.04,0.9
		C163.11,173.89,163.78,173.58,164.26,172.97z"/>
	<path class="st0" d="M170.4,175.83V160h2.6v15.83H170.4z"/>
</g>
<path class="st0" d="M191,92.53c0-18.37-14.87-33.27-33.21-33.27c-1.43,0-2.83,0.1-4.21,0.27c-3.82-9.26-12.93-15.77-23.55-15.77
	c-4.63,0-8.97,1.24-12.71,3.41c-7.14-14.44-21.99-24.37-39.16-24.37c-24.12,0-43.68,19.59-43.68,43.75c0,2.81,0.28,5.56,0.78,8.22
	c-0.26-0.01-0.52-0.02-0.78-0.02C20.41,74.75,9,86.18,9,100.27c0,14.1,11.41,25.52,25.48,25.52h125.58v-0.09
	C177.34,124.54,191,110.13,191,92.53z"/>
<path class="st0" d="M160,137.79H40c-2.21,0-4-1.79-4-4l0,0c0-2.21,1.79-4,4-4h120c2.21,0,4,1.79,4,4l0,0
	C164,136,162.21,137.79,160,137.79z"/>
<path class="st0" d="M154,149.79H46c-2.21,0-4-1.79-4-4l0,0c0-2.21,1.79-4,4-4h108c2.21,0,4,1.79,4,4l0,0
	C158,148,156.21,149.79,154,149.79z"/>
</svg>
